<svg width="18" height="18" viewBox="0 0 18 18" fill="none" xmlns="http://www.w3.org/2000/svg">
<path d="M15.3075 9.67887C14.1583 10.5407 12.7554 11.1391 11.2286 11.4343C11.0744 12.5264 10.134 13.3694 9 13.3694C7.86596 13.3694 6.92561 12.5264 6.77141 11.4343C5.24457 11.1391 3.8417 10.5407 2.69251 9.67887C0.956215 8.37664 0 6.63107 0 4.76367V14.3438C0 15.7758 1.16511 16.9409 2.59717 16.9409H15.4028C16.8349 16.9409 18 15.7758 18 14.3438V4.76367C18 6.63107 17.0438 8.37664 15.3075 9.67887Z" fill="#333333"/>
<path d="M6.74877 10.3517V9.39382C6.74877 9.10259 6.98488 8.86648 7.27611 8.86648H10.7239C11.0151 8.86648 11.2512 9.10259 11.2512 9.39382V10.3517C14.5393 9.63802 16.9453 7.403 16.9453 4.76318V4.23584H12.7046V3.1879C12.7046 2.01379 11.7494 1.05859 10.5753 1.05859H7.42475C6.25068 1.05859 5.29545 2.01379 5.29545 3.1879V4.23584H1.05469V4.76318C1.05469 7.403 3.46071 9.63802 6.74877 10.3517ZM6.3501 3.1879C6.3501 2.59534 6.8322 2.11328 7.42472 2.11328H10.5752C11.1678 2.11328 11.6499 2.59534 11.6499 3.1879V4.23584H6.35006V3.1879H6.3501Z" fill="#333333"/>
<path d="M10.1968 9.9209H7.80371V11.1174C7.80371 11.7772 8.34051 12.314 9.00025 12.314C9.66 12.314 10.1968 11.7772 10.1968 11.1174V9.9209Z" fill="#333333"/>
</svg>
