<svg width="10" height="6" viewBox="0 0 10 6" fill="none" xmlns="http://www.w3.org/2000/svg">
<path d="M4.93184 3.93656L8.65784 0.207563C8.72293 0.141803 8.80042 0.0895987 8.88581 0.0539713C8.9712 0.0183439 9.06281 0 9.15534 0C9.24787 0 9.33948 0.0183439 9.42487 0.0539713C9.51027 0.0895987 9.58775 0.141803 9.65284 0.207563C9.78475 0.340544 9.85876 0.52026 9.85876 0.707563C9.85876 0.894867 9.78475 1.07458 9.65284 1.20756L5.43084 5.43256C5.30315 5.561 5.13064 5.63494 4.94958 5.63886C4.76851 5.64277 4.59297 5.57636 4.45984 5.45356L0.207841 1.20856C0.14218 1.14323 0.0900304 1.0656 0.0543693 0.980118C0.0187082 0.894631 0.000234364 0.802957 2.21547e-06 0.710331C-0.000229933 0.617705 0.0177844 0.52594 0.0530165 0.440275C0.0882486 0.354611 0.140009 0.276724 0.205341 0.211063C0.270674 0.145402 0.348299 0.0932525 0.433786 0.0575914C0.519273 0.0219304 0.610947 0.00345652 0.703574 0.00322437C0.7962 0.00299223 0.887965 0.021006 0.973629 0.0562382C1.05929 0.0914703 1.13718 0.143231 1.20284 0.208564L4.93184 3.93656Z" fill="#333333"/>
</svg>
