<svg width="48" height="46" viewBox="0 0 48 46" fill="none" xmlns="http://www.w3.org/2000/svg">
<g clip-path="url(#clip0_2487_46491)">
<path d="M36.2588 41.1639C36.6231 40.8051 36.8052 40.3801 36.8052 39.889C36.8052 39.398 36.6231 38.973 36.2588 38.6142C35.8946 38.2553 35.4633 38.0759 34.9649 38.0759C34.4665 38.0759 34.0352 38.2553 33.671 38.6142C33.3068 38.973 33.1246 39.398 33.1246 39.889C33.1246 40.3801 33.3068 40.8051 33.671 41.1639C34.0352 41.5228 34.4665 41.7022 34.9649 41.7022C35.4633 41.7022 35.8946 41.5228 36.2588 41.1639ZM43.6199 41.1639C43.9841 40.8051 44.1662 40.3801 44.1662 39.889C44.1662 39.398 43.9841 38.973 43.6199 38.6142C43.2557 38.2553 42.8243 38.0759 42.3259 38.0759C41.8275 38.0759 41.3962 38.2553 41.032 38.6142C40.6678 38.973 40.4857 39.398 40.4857 39.889C40.4857 40.3801 40.6678 40.8051 41.032 41.1639C41.3962 41.5228 41.8275 41.7022 42.3259 41.7022C42.8243 41.7022 43.2557 41.5228 43.6199 41.1639ZM47.0416 31.6166C47.5783 32.1454 47.8467 32.7876 47.8467 33.5431V42.6088C47.8467 43.3642 47.5783 44.0064 47.0416 44.5352C46.5049 45.0641 45.8531 45.3285 45.0863 45.3285H2.76039C1.99361 45.3285 1.34185 45.0641 0.805113 44.5352C0.268371 44.0064 0 43.3642 0 42.6088V33.5431C0 32.7876 0.268371 32.1454 0.805113 31.6166C1.34185 31.0878 1.99361 30.8234 2.76039 30.219H15.0384C15.4409 31.881 16.1166 32.7498 17.0655 33.4297C18.0144 34.1097 19.0735 34.4496 20.2428 34.4496H27.6039C28.7732 34.4496 29.8323 34.1097 30.7812 33.4297C31.7301 32.7498 32.4058 31.881 32.8084 30.219H45.0863C45.8531 30.8234 46.5049 31.0878 47.0416 31.6166ZM38.0991 13.2302C38.6933 13.7969 38.8275 14.4484 38.5017 15.185C38.1758 15.9405 37.6103 16.3182 36.8052 16.3182H29.1748V29.0102C29.4441 29.5013 29.262 29.9262 28.8978 30.2851C28.5336 30.6439 28.1023 30.8234 27.6039 30.8234H20.2428C19.7444 30.8234 19.3131 30.6439 18.9489 30.2851C18.5847 29.9262 18.4026 29.5013 18.6719 29.0102V16.3182H11.0415C10.2364 16.3182 9.67094 15.9405 9.34506 15.185C9.01918 14.4484 9.15337 13.7969 9.74762 13.2302L22.6294 0.538276C22.9745 0.179425 23.4058 0 23.9234 0C24.4409 0 24.8722 0.179425 25.2173 0.538276L38.0991 13.2302Z" fill="url(#paint0_linear_2487_46491)"/>
</g>
<defs>
<linearGradient id="paint0_linear_2487_46491" x1="1.79269" y1="25.8301" x2="47.7185" y2="25.3116" gradientUnits="userSpaceOnUse">
<stop stop-color="#FF4C4C"/>
<stop offset="1" stop-color="#FF7F32"/>
</linearGradient>
<clipPath id="clip0_2487_46491">
<rect width="47.8467" height="45.3285" fill="white"/>
</clipPath>
</defs>
</svg>
