<svg width="16" height="12" viewBox="0 0 16 12" fill="none" xmlns="http://www.w3.org/2000/svg">
<path opacity="0.5" d="M7.76703 8.82951C6.88742 8.82859 6.0408 8.52504 5.39736 7.97987C4.75391 7.43469 4.36134 6.68831 4.29857 5.89077L1.75256 4.10209C1.40996 4.48148 1.11003 4.89111 0.857241 5.32483C0.80083 5.42532 0.771419 5.53653 0.771419 5.64934C0.771419 5.76215 0.80083 5.87336 0.857241 5.97385C1.49956 7.14215 2.48508 8.12604 3.70466 8.81655C4.92423 9.50706 6.33026 9.87724 7.76703 9.8861C8.40544 9.88217 9.04072 9.80453 9.65761 9.65505L8.39817 8.7698C8.19013 8.80617 7.97888 8.82529 7.76703 8.82691V8.82951ZM15.3836 10.1107L12.6991 8.22333C13.5139 7.59966 14.1842 6.83502 14.6711 5.97385C14.7275 5.87336 14.7569 5.76215 14.7569 5.64934C14.7569 5.53653 14.7275 5.42532 14.6711 5.32483C14.0288 4.1578 13.044 3.17496 11.8256 2.48497C10.6071 1.79499 9.20252 1.42474 7.76703 1.41517C6.51935 1.41747 5.29214 1.7035 4.19718 2.24721L1.10427 0.0769069C1.02377 0.0186151 0.921108 -0.00824824 0.818833 0.00221702C0.716558 0.0126823 0.623034 0.0596204 0.558802 0.132722L0.0818712 0.696066C0.0505123 0.732699 0.0274076 0.774593 0.0138792 0.819351C0.000350798 0.86411 -0.00333579 0.910854 0.0030304 0.956909C0.00939659 1.00296 0.0256906 1.04743 0.0509801 1.08775C0.0762695 1.12808 0.110058 1.16347 0.150412 1.19191L14.4298 11.2231C14.4701 11.2516 14.5162 11.2726 14.5654 11.2849C14.6146 11.2972 14.6661 11.3005 14.7167 11.2947C14.7674 11.2889 14.8163 11.2741 14.8607 11.2511C14.905 11.2282 14.944 11.1974 14.9753 11.1608L15.4522 10.6039C15.4835 10.5673 15.5066 10.5254 15.5202 10.4806C15.5337 10.4359 15.5374 10.3891 15.531 10.3431C15.5247 10.297 15.5084 10.2525 15.4831 10.2122C15.4578 10.1719 15.424 10.1365 15.3836 10.1081V10.1107ZM10.9242 6.97592L9.97033 6.30614C10.1085 5.94361 10.1342 5.55351 10.0446 5.1786C9.955 4.80368 9.75361 4.45841 9.46249 4.18063C9.17136 3.90286 8.80174 3.70329 8.39412 3.6038C7.9865 3.50432 7.55661 3.50876 7.15158 3.61663C7.29767 3.79677 7.37671 4.01459 7.3772 4.23838C7.37366 4.31294 7.36121 4.38693 7.34007 4.45905L5.55372 3.20386C6.17396 2.73072 6.95734 2.47069 7.76703 2.46917C8.22642 2.469 8.68134 2.55121 9.10573 2.7111C9.53012 2.87099 9.91564 3.10541 10.2402 3.40093C10.5648 3.69646 10.822 4.04729 10.9972 4.43333C11.1724 4.81937 11.2621 5.23304 11.2612 5.65064C11.2581 6.10963 11.143 6.56228 10.9242 6.97592Z" fill="#707C8B"/>
</svg>
