<svg width="22" height="22" viewBox="0 0 22 22" fill="none" xmlns="http://www.w3.org/2000/svg">
<path d="M4.97927 15.3819H3.36914C3.00447 15.3819 2.65473 15.5268 2.39687 15.7846C2.13901 16.0425 1.99414 16.3922 1.99414 16.7569V18.8167C1.99414 19.1813 2.13901 19.5311 2.39687 19.7889C2.65473 20.0468 3.00447 20.1917 3.36914 20.1917H6.35427V16.7569C6.35427 16.3922 6.2094 16.0425 5.95154 15.7846C5.69368 15.5268 5.34394 15.3819 4.97927 15.3819ZM10.5769 11.9444H8.96677C8.60209 11.9444 8.25236 12.0893 7.99449 12.3471C7.73663 12.605 7.59177 12.9547 7.59177 13.3194V20.1917H11.9519V13.3194C11.9519 12.9547 11.807 12.605 11.5492 12.3471C11.2913 12.0893 10.9416 11.9444 10.5769 11.9444ZM19.8588 3.79203L20.5608 2.54559C20.6031 2.4704 20.6251 2.38542 20.6244 2.29911C20.6238 2.2128 20.6005 2.12817 20.557 2.05364C20.5135 1.9791 20.4512 1.91727 20.3763 1.87427C20.3015 1.83128 20.2167 1.80864 20.1304 1.80859H15.3688C15.2047 1.80859 15.0473 1.87378 14.9312 1.98982C14.8152 2.10586 14.75 2.26324 14.75 2.42734V8.50622H14.5637C14.199 8.50622 13.8493 8.65108 13.5914 8.90895C13.3336 9.16681 13.1887 9.51655 13.1887 9.88122V20.191H16.1738C16.5385 20.191 16.8882 20.0461 17.1461 19.7882C17.404 19.5304 17.5488 19.1806 17.5488 18.816V9.88191C17.5488 9.51723 17.404 9.1675 17.1461 8.90963C16.8882 8.65177 16.5385 8.50691 16.1738 8.50691H15.9875V5.77547H20.1304C20.5085 5.77547 20.7464 5.36847 20.5608 5.03847L19.8588 3.79203Z" fill="#333333"/>
</svg>
