<svg width="14" height="17" viewBox="0 0 14 17" fill="none" xmlns="http://www.w3.org/2000/svg">
<path d="M12.643 3.80825C11.5399 1.49565 9.26647 0.0341839 6.7075 0.000586842C4.14293 -0.0330102 1.86953 1.37806 0.72723 3.69626C-0.459864 6.09845 -0.179889 8.8814 1.46636 10.97L5.71639 16.3679C5.82245 16.5026 5.95768 16.6114 6.1119 16.6863C6.26611 16.7611 6.43529 16.8 6.60671 16.8C6.77812 16.8 6.94731 16.7611 7.10152 16.6863C7.25573 16.6114 7.39096 16.5026 7.49703 16.3679L11.859 10.8244C13.4437 8.80861 13.7405 6.12644 12.643 3.81385V3.80825ZM10.9855 10.1301L6.60111 15.6736L2.35109 10.2757C0.979208 8.53423 0.744029 6.19924 1.73514 4.19461C2.68706 2.26839 4.5069 1.12609 6.61231 1.12609H6.6963C8.85771 1.15968 10.7055 2.34118 11.6351 4.29541C12.5646 6.24963 12.3238 8.42784 10.9855 10.1301Z" fill="white"/>
<path d="M6.61276 4.15723C5.16808 4.15723 3.99219 5.33312 3.99219 6.77779C3.99219 8.22247 5.16808 9.39836 6.61276 9.39836C8.05743 9.39836 9.23332 8.22247 9.23332 6.77779C9.23332 5.33312 8.05743 4.15723 6.61276 4.15723ZM6.61276 8.43365C6.17924 8.42322 5.76698 8.24369 5.46405 7.93339C5.16113 7.62309 4.99155 7.20664 4.99155 6.77299C4.99155 6.33935 5.16113 5.9229 5.46405 5.6126C5.76698 5.3023 6.17924 5.12277 6.61276 5.11234C7.04628 5.12277 7.45853 5.3023 7.76146 5.6126C8.06438 5.9229 8.23396 6.33935 8.23396 6.77299C8.23396 7.20664 8.06438 7.62309 7.76146 7.93339C7.45853 8.24369 7.04628 8.42322 6.61276 8.43365Z" fill="white"/>
</svg>
