<svg width="22" height="22" viewBox="0 0 22 22" fill="none" xmlns="http://www.w3.org/2000/svg">
<path d="M4.97731 15.3819H3.36719C3.00251 15.3819 2.65278 15.5268 2.39492 15.7846C2.13705 16.0425 1.99219 16.3922 1.99219 16.7569V18.8167C1.99219 19.1813 2.13705 19.5311 2.39492 19.7889C2.65278 20.0468 3.00251 20.1917 3.36719 20.1917H6.35231V16.7569C6.35231 16.3922 6.20745 16.0425 5.94958 15.7846C5.69172 15.5268 5.34199 15.3819 4.97731 15.3819ZM10.5749 11.9444H8.96481C8.60014 11.9444 8.2504 12.0893 7.99254 12.3471C7.73468 12.605 7.58981 12.9547 7.58981 13.3194V20.1917H11.9499V13.3194C11.9499 12.9547 11.8051 12.605 11.5472 12.3471C11.2893 12.0893 10.9396 11.9444 10.5749 11.9444ZM19.8569 3.79203L20.5588 2.54559C20.6012 2.4704 20.6231 2.38542 20.6225 2.29911C20.6218 2.2128 20.5986 2.12817 20.555 2.05364C20.5115 1.9791 20.4492 1.91727 20.3744 1.87427C20.2995 1.83128 20.2148 1.80864 20.1284 1.80859H15.3668C15.2027 1.80859 15.0453 1.87378 14.9293 1.98982C14.8133 2.10586 14.7481 2.26324 14.7481 2.42734V8.50622H14.5618C14.1971 8.50622 13.8473 8.65108 13.5895 8.90895C13.3316 9.16681 13.1868 9.51655 13.1868 9.88122V20.191H16.1719C16.5365 20.191 16.8863 20.0461 17.1441 19.7882C17.402 19.5304 17.5469 19.1806 17.5469 18.816V9.88191C17.5469 9.51723 17.402 9.1675 17.1441 8.90963C16.8863 8.65177 16.5365 8.50691 16.1719 8.50691H15.9856V5.77547H20.1284C20.5066 5.77547 20.7444 5.36847 20.5588 5.03847L19.8569 3.79203Z" fill="white"/>
</svg>
