<svg width="28" height="18" viewBox="0 0 28 18" fill="none" xmlns="http://www.w3.org/2000/svg">
<path fill-rule="evenodd" clip-rule="evenodd" d="M9.40411 0.377371C9.5176 0.49676 9.60763 0.63857 9.66907 0.794682C9.7305 0.950794 9.76212 1.11814 9.76212 1.28715C9.76212 1.45616 9.7305 1.62351 9.66907 1.77962C9.60763 1.93574 9.5176 2.07755 9.40411 2.19693L2.94311 9L9.39991 15.8031C9.62882 16.0446 9.75735 16.372 9.75721 16.7134C9.75708 17.0547 9.62831 17.3821 9.39921 17.6234C9.17012 17.8647 8.85947 18.0001 8.53562 18C8.21176 17.9999 7.90122 17.8641 7.67231 17.6226L0.35871 9.912C0.245012 9.79258 0.154798 9.65068 0.0932425 9.49443C0.0316865 9.33818 0 9.17066 0 9.00148C0 8.83229 0.0316865 8.66477 0.0932425 8.50852C0.154798 8.35228 0.245012 8.21037 0.35871 8.09096L7.67651 0.377371C7.78977 0.257745 7.92431 0.16284 8.07241 0.0980857C8.22051 0.0333313 8.37927 0 8.53961 0C8.69995 0 8.85871 0.0333313 9.00681 0.0980857C9.15491 0.16284 9.28945 0.257745 9.40271 0.377371H9.40411Z" fill="#333333"/>
<path fill-rule="evenodd" clip-rule="evenodd" d="M1.40039 8.85463C1.40039 8.66026 1.44652 8.46781 1.53613 8.28833C1.62575 8.10885 1.75708 7.94586 1.92258 7.80874C2.08809 7.67162 2.28451 7.56306 2.50057 7.4893C2.71663 7.41554 2.94807 7.37803 3.1816 7.37892H26.2273C26.6976 7.37892 27.1486 7.5344 27.4811 7.81115C27.8136 8.08789 28.0004 8.46325 28.0004 8.85463C28.0004 9.24601 27.8136 9.62136 27.4811 9.89811C27.1486 10.1749 26.6976 10.3303 26.2273 10.3303H3.1816C2.94807 10.3312 2.71663 10.2937 2.50057 10.22C2.28451 10.1462 2.08809 10.0376 1.92258 9.90051C1.75708 9.76339 1.62575 9.60041 1.53613 9.42092C1.44652 9.24144 1.40039 9.04899 1.40039 8.85463Z" fill="#333333"/>
</svg>
