<svg width="22" height="23" viewBox="0 0 22 23" fill="none" xmlns="http://www.w3.org/2000/svg">
<path fill-rule="evenodd" clip-rule="evenodd" d="M8.71027 12.981C7.90789 12.7207 7.14187 13.0707 6.45442 13.4686L3.64453 15.0955L5.72541 18.7723L6.24398 18.4729C6.32901 18.4239 6.43002 18.4107 6.52481 18.4361L12.0563 19.9171C12.7535 20.104 13.4129 20.0195 14.0294 19.6401C16.573 18.0781 19.1134 16.511 21.6551 14.9459C22.0417 14.7079 22.0918 14.0577 21.8627 13.6887C21.3575 12.8746 19.9581 13.5524 19.3766 13.891L15.1746 16.3385C14.8417 16.5323 14.4994 16.6555 14.1441 16.7151C13.7933 16.774 13.432 16.7699 13.0566 16.7099L12.5609 16.6295C12.5422 16.6265 12.5236 16.6238 12.5052 16.6193C11.5611 16.4254 10.6468 16.1302 9.71727 15.8812C9.623 15.8546 9.54298 15.7921 9.49451 15.707C9.44605 15.6219 9.43305 15.5211 9.45833 15.4265C9.48361 15.3319 9.54513 15.2511 9.62958 15.2015C9.71403 15.1519 9.81461 15.1376 9.90953 15.1616C10.8183 15.4051 11.7191 15.6978 12.6404 15.8883C13.1084 15.9455 13.4945 15.7979 13.6244 15.3132C13.7422 14.8734 13.4649 14.459 13.0496 14.3151C11.7876 14.0841 10.5628 13.6413 9.59967 13.2931C9.2646 13.172 8.96178 13.0625 8.71027 12.981ZM13.6547 6.19395C13.8744 5.97437 14.2336 5.97437 14.4532 6.19395L15.0253 6.76603L16.5731 5.21818C16.7927 4.9986 17.152 4.9986 17.3716 5.21818C17.5912 5.43776 17.5912 5.79707 17.3716 6.01664L15.4355 7.95271C15.1556 8.23264 14.7811 8.11887 14.5329 7.87063L13.6547 6.99246C13.4351 6.77284 13.4352 6.41352 13.6547 6.19395ZM20.5502 5.44018C20.4235 4.90809 20.2127 4.39962 19.9258 3.93395L20.3602 2.95571L19.207 1.80246L18.2285 2.23704C17.7629 1.95022 17.2546 1.73948 16.7226 1.61276L16.3383 0.614195H14.7074L14.323 1.61276C13.791 1.73948 13.2827 1.95023 12.8172 2.23704L11.8386 1.80246L10.6854 2.95576L11.1199 3.93418C10.8331 4.39977 10.6223 4.90814 10.4956 5.44013L9.49718 5.82447V7.45543L10.4955 7.83968C10.6222 8.37176 10.833 8.88023 11.1199 9.34591L10.6854 10.3241L11.8387 11.4774L12.8172 11.0428C13.2828 11.3296 13.7911 11.5403 14.323 11.667L14.7074 12.6656H16.3383L16.7226 11.6672C17.2547 11.5406 17.7631 11.3298 18.2288 11.0429L19.207 11.4774L20.3602 10.3241L19.9257 9.34554C20.2125 8.87998 20.4232 8.37166 20.5499 7.83972L21.5484 7.45538V5.82443L20.5502 5.44018ZM15.5131 9.78529C13.7456 9.78529 12.3128 8.35243 12.3128 6.58491C12.3128 4.81734 13.7456 3.38447 15.5131 3.38447C17.2807 3.38447 18.7136 4.81734 18.7136 6.58491C18.7136 8.35243 17.2807 9.78529 15.5131 9.78529ZM6.04701 6.539L6.55939 7.88848C6.57477 7.92903 6.61066 7.95508 6.65396 7.95718L8.09573 8.02747C8.1938 8.03222 8.23393 8.15578 8.15739 8.21726L7.03229 9.12158C7.01589 9.13442 7.00369 9.15186 6.99725 9.17167C6.99082 9.19148 6.99044 9.21276 6.99617 9.23279L7.37487 10.6257C7.4006 10.7204 7.29558 10.7968 7.21341 10.743L6.00567 9.95244C5.98839 9.94082 5.96804 9.93461 5.94722 9.93461C5.9264 9.93461 5.90605 9.94082 5.88877 9.95244L4.68108 10.743C4.59895 10.7968 4.49389 10.7205 4.51962 10.6257L4.89832 9.23279C4.90404 9.21276 4.90365 9.19148 4.89722 9.17167C4.89078 9.15187 4.87859 9.13442 4.8622 9.12158L3.7371 8.21726C3.66056 8.15574 3.70069 8.03222 3.79876 8.02747L5.24053 7.95718C5.26134 7.95642 5.28146 7.94948 5.29831 7.93725C5.31516 7.92501 5.32798 7.90803 5.33515 7.88848L5.84748 6.539C5.88206 6.44773 6.01238 6.44773 6.04701 6.539ZM6.04701 0.0684459L6.55934 1.41793C6.57477 1.45848 6.61061 1.48453 6.65396 1.48663L8.09568 1.55692C8.19375 1.56167 8.23388 1.68523 8.15735 1.74671L7.03224 2.65103C7.01586 2.66388 7.00368 2.68132 6.99724 2.70113C6.99081 2.72094 6.99042 2.74221 6.99612 2.76224L7.37482 4.15516C7.4006 4.24987 7.29554 4.32621 7.21337 4.27247L6.00567 3.48189C5.98839 3.47027 5.96804 3.46406 5.94722 3.46406C5.9264 3.46406 5.90605 3.47027 5.88877 3.48189L4.68108 4.27247C4.59895 4.32626 4.49385 4.24992 4.51962 4.15516L4.89832 2.76224C4.90402 2.74221 4.90363 2.72094 4.8972 2.70113C4.89077 2.68132 4.87858 2.66388 4.8622 2.65103L3.7371 1.74671C3.66056 1.68523 3.70074 1.56167 3.79876 1.55692L5.24053 1.48663C5.26134 1.48588 5.28145 1.47895 5.2983 1.46671C5.31514 1.45447 5.32796 1.43749 5.3351 1.41793L5.84748 0.0684459C5.88206 -0.0228153 6.01233 -0.0228153 6.04701 0.0684459ZM5.80185 20.4215L2.33565 14.2969C2.16804 14.0008 1.78864 13.8956 1.49248 14.0632L0.313496 14.7305C0.0173402 14.8981 -0.0878107 15.2775 0.0797967 15.5737L3.54604 21.6982C3.71365 21.9944 4.09305 22.0995 4.38921 21.9319L5.56819 21.2647C5.86426 21.0971 5.96945 20.7176 5.80185 20.4215ZM1.66261 16.048C1.60779 16.0563 1.55189 16.0536 1.4981 16.0402C1.44432 16.0268 1.39372 16.0029 1.3492 15.9698C1.30468 15.9368 1.26712 15.8953 1.23867 15.8477C1.21023 15.8002 1.19146 15.7474 1.18344 15.6926C1.17543 15.6377 1.17832 15.5819 1.19197 15.5281C1.20561 15.4744 1.22972 15.4239 1.26293 15.3795C1.29614 15.3351 1.33779 15.2977 1.38548 15.2695C1.43318 15.2413 1.48598 15.2227 1.54086 15.2149C1.6511 15.1993 1.76305 15.2279 1.8522 15.2947C1.94135 15.3614 2.00045 15.4607 2.01655 15.5708C2.03265 15.681 2.00444 15.7931 1.93811 15.8825C1.87178 15.9719 1.77271 16.0315 1.66261 16.048Z" fill="#333333"/>
</svg>
