<svg width="15" height="16" viewBox="0 0 15 16" fill="none" xmlns="http://www.w3.org/2000/svg">
<path d="M14.5205 13.9822L10.554 10.0157C11.0321 9.43999 11.3858 8.79841 11.6151 8.09097C11.8445 7.38353 11.9347 6.65902 11.8859 5.91742C11.8371 5.17583 11.6493 4.46839 11.3224 3.7951C10.9955 3.12181 10.5564 2.53147 10.0051 2.02406C9.4538 1.51666 8.8293 1.13366 8.13161 0.875082C7.43393 0.6165 6.71185 0.496967 5.96538 0.516482C5.21891 0.535998 4.50415 0.689684 3.82111 0.977539C3.13806 1.26539 2.53308 1.67522 2.00616 2.20702C1.47924 2.73882 1.06697 3.34868 0.769355 4.03661C0.471742 4.72453 0.315618 5.43929 0.300981 6.18088C0.286344 6.92248 0.408317 7.64211 0.666898 8.3398C0.92548 9.03748 1.30847 9.66198 1.81588 10.2133C2.32328 10.7646 2.91119 11.2037 3.5796 11.5306C4.24801 11.8575 4.95545 12.0453 5.70192 12.0941C6.44839 12.1429 7.17779 12.0526 7.89011 11.8233C8.60243 11.594 9.24156 11.2403 9.80752 10.7622L13.7741 14.7287L14.5205 13.9822ZM1.37678 6.31261C1.37678 5.36611 1.64024 4.48791 2.16716 3.67801C2.70384 2.88763 3.41128 2.30704 4.28948 1.93624C4.72858 1.7606 5.18232 1.64839 5.65069 1.5996C6.11907 1.55081 6.58012 1.57276 7.03386 1.66546C7.4876 1.75816 7.92182 1.91429 8.33653 2.13384C8.75123 2.35339 9.12447 2.62905 9.45623 2.96081C10.1393 3.66337 10.5686 4.47327 10.7443 5.3905C10.8418 5.84912 10.8687 6.31261 10.8248 6.78099C10.7809 7.24936 10.6686 7.69822 10.4881 8.12756C10.3076 8.55691 10.0685 8.95454 9.77092 9.32046C9.47331 9.68637 9.12935 9.99862 8.73904 10.2572C8.34873 10.5158 7.92914 10.7134 7.48028 10.85C7.03142 10.9866 6.57281 11.0549 6.10443 11.0549C5.47017 11.0451 4.86519 10.9207 4.28948 10.6817C3.71377 10.4426 3.20393 10.1011 2.75995 9.6571C2.31597 9.21312 1.97444 8.70327 1.73538 8.12756C1.49631 7.55186 1.37678 6.94687 1.37678 6.31261Z" fill="white"/>
</svg>
