<svg width="13" height="14" viewBox="0 0 13 14" fill="none" xmlns="http://www.w3.org/2000/svg">
<path fill-rule="evenodd" clip-rule="evenodd" d="M3.10816 1.74269C3.98353 1.20342 5.04382 0.948413 6.10846 1.0211C7.17309 1.09379 8.17624 1.48968 8.94704 2.14135C9.71784 2.79301 10.2086 3.66015 10.3358 4.59508C10.463 5.53002 10.2188 6.47492 9.64467 7.26888C9.07055 8.06284 8.20208 8.65674 7.18716 8.94945C6.17223 9.24216 5.07363 9.21557 4.07844 8.87421C3.08326 8.53284 2.25304 7.89782 1.72917 7.07728C1.20531 6.25675 1.0202 5.30145 1.20538 4.37407C1.31011 3.84649 1.53215 3.34239 1.85871 2.89078C2.18527 2.43918 2.6099 2.04899 3.10816 1.74269ZM4.27779 9.98579C5.59174 10.2946 6.98724 10.1829 8.21669 9.67058L8.61778 9.50262L12.0345 13.8052C12.1166 13.9054 12.2401 13.973 12.3783 13.9935C12.5165 14.014 12.6583 13.9857 12.7731 13.9147C12.8878 13.8437 12.9662 13.7357 12.9913 13.6141C13.0165 13.4925 12.9864 13.3671 12.9075 13.2649L9.49235 8.96403L9.8098 8.68773C10.712 7.9003 11.294 6.87205 11.4651 5.76287C11.6362 4.65368 11.3869 3.52572 10.756 2.55436C10.1251 1.583 9.14794 0.822684 7.97643 0.391625C6.80491 -0.0394348 5.50471 -0.117079 4.27799 0.170766C3.05127 0.45861 1.96677 1.09581 1.19312 1.9833C0.419467 2.87078 2.22807e-05 3.95881 8.87627e-10 5.07821C-2.22789e-05 6.19761 0.41938 7.28566 1.19299 8.17316C1.96661 9.06067 3.05108 9.6979 4.27779 9.98579Z" fill="black"/>
</svg>
