<svg width="214" height="59" viewBox="0 0 214 59" fill="none" xmlns="http://www.w3.org/2000/svg">
<mask id="mask0_2487_44821" style="mask-type:luminance" maskUnits="userSpaceOnUse" x="0" y="0" width="214" height="59">
<path d="M213.932 0H0V58.5625H213.932V0Z" fill="white"/>
</mask>
<g mask="url(#mask0_2487_44821)">
<g filter="url(#filter0_f_2487_44821)">
<path d="M2.98633 52.57C9.60312 52.57 15.2747 33.0378 21.8915 33.0378C28.5083 33.0378 34.1798 43.5552 40.7966 43.5552C47.4134 43.5552 53.0849 10.5007 59.7017 10.5007C66.3185 10.5007 71.9901 28.5304 78.6068 28.5304C85.2236 28.5304 90.8952 18.0131 97.512 18.0131C104.129 18.0131 109.8 39.0477 116.417 39.0477C123.034 39.0477 128.705 13.5056 135.322 13.5056C141.939 13.5056 147.611 22.5205 154.227 22.5205C160.844 22.5205 166.516 48.0626 173.132 48.0626C179.749 48.0626 185.421 2.98828 192.038 2.98828C198.654 2.98828 204.326 27.0279 210.943 27.0279C210.943 27.0279 210.943 27.0279 210.943 55.575H2.98633V52.57Z" fill="url(#paint0_linear_2487_44821)"/>
</g>
</g>
<mask id="mask1_2487_44821" style="mask-type:luminance" maskUnits="userSpaceOnUse" x="0" y="0" width="214" height="59">
<path d="M213.932 0H0V58.5625H213.932V0Z" fill="white"/>
</mask>
<g mask="url(#mask1_2487_44821)">
<path d="M2.98633 52.57C9.60312 52.57 15.2747 33.0378 21.8915 33.0378C28.5083 33.0378 34.1798 43.5552 40.7966 43.5552C47.4134 43.5552 53.0849 10.5007 59.7017 10.5007C66.3185 10.5007 71.9901 28.5304 78.6069 28.5304C85.2236 28.5304 90.8952 18.013 97.512 18.013C104.129 18.013 109.8 39.0477 116.417 39.0477C123.034 39.0477 128.705 13.5056 135.322 13.5056C141.939 13.5056 147.611 22.5205 154.227 22.5205C160.844 22.5205 166.516 48.0626 173.132 48.0626C179.749 48.0626 185.421 2.98828 192.038 2.98828C198.654 2.98828 204.326 27.0279 210.943 27.0279" stroke="#E7366B" stroke-width="1.19515"/>
</g>
<defs>
<filter id="filter0_f_2487_44821" x="-1.79428" y="-1.79233" width="217.517" height="62.1481" filterUnits="userSpaceOnUse" color-interpolation-filters="sRGB">
<feFlood flood-opacity="0" result="BackgroundImageFix"/>
<feBlend mode="normal" in="SourceGraphic" in2="BackgroundImageFix" result="shape"/>
<feGaussianBlur stdDeviation="2.3903" result="effect1_foregroundBlur_2487_44821"/>
</filter>
<linearGradient id="paint0_linear_2487_44821" x1="2.98633" y1="2.98828" x2="2.98633" y2="55.575" gradientUnits="userSpaceOnUse">
<stop stop-color="#E7366B" stop-opacity="0.25"/>
<stop offset="0.9" stop-color="white" stop-opacity="0.25"/>
<stop offset="1" stop-color="white" stop-opacity="0.25"/>
</linearGradient>
</defs>
</svg>
