<svg width="212" height="58" viewBox="0 0 212 58" fill="none" xmlns="http://www.w3.org/2000/svg">
<mask id="mask0_2487_44761" style="mask-type:luminance" maskUnits="userSpaceOnUse" x="0" y="-2" width="212" height="60">
<path d="M211.542 -1.12891H0V57.4335H211.542V-1.12891Z" fill="white"/>
</mask>
<g mask="url(#mask0_2487_44761)">
<g filter="url(#filter0_f_2487_44761)">
<path d="M2.98828 48.6025C9.52902 48.6025 15.1354 33.9951 21.6761 33.9951C28.2169 33.9951 33.8232 51.524 40.3639 51.524C46.9047 51.524 52.511 25.2307 59.0518 25.2307C65.5925 25.2307 71.1989 13.5447 77.7396 13.5447C84.2803 13.5447 89.8867 28.1521 96.4274 28.1521C102.968 28.1521 108.575 4.78027 115.115 4.78027C121.656 4.78027 127.262 19.3877 133.803 19.3877C140.344 19.3877 145.95 33.9951 152.491 33.9951C159.032 33.9951 164.638 48.6025 171.179 48.6025C177.719 48.6025 183.326 42.7596 189.867 42.7596C196.407 42.7596 202.014 54.4455 208.554 54.4455H2.98828V48.6025Z" fill="url(#paint0_linear_2487_44761)"/>
</g>
</g>
<mask id="mask1_2487_44761" style="mask-type:luminance" maskUnits="userSpaceOnUse" x="0" y="-2" width="212" height="60">
<path d="M211.542 -1.12891H0V57.4335H211.542V-1.12891Z" fill="white"/>
</mask>
<g mask="url(#mask1_2487_44761)">
<path d="M2.98828 48.6025C9.52902 48.6025 15.1354 33.9951 21.6761 33.9951C28.2169 33.9951 33.8232 51.524 40.3639 51.524C46.9047 51.524 52.511 25.2307 59.0518 25.2307C65.5925 25.2307 71.1989 13.5447 77.7396 13.5447C84.2803 13.5447 89.8867 28.1521 96.4274 28.1521C102.968 28.1521 108.575 4.78027 115.115 4.78027C121.656 4.78027 127.262 19.3877 133.803 19.3877C140.344 19.3877 145.95 33.9951 152.491 33.9951C159.032 33.9951 164.638 48.6025 171.179 48.6025C177.72 48.6025 183.326 42.7596 189.867 42.7596C196.407 42.7596 202.014 54.4455 208.554 54.4455" stroke="#C26316" stroke-width="1.19515"/>
</g>
<defs>
<filter id="filter0_f_2487_44761" x="-1.79233" y="-0.00033474" width="215.128" height="59.2263" filterUnits="userSpaceOnUse" color-interpolation-filters="sRGB">
<feFlood flood-opacity="0" result="BackgroundImageFix"/>
<feBlend mode="normal" in="SourceGraphic" in2="BackgroundImageFix" result="shape"/>
<feGaussianBlur stdDeviation="2.3903" result="effect1_foregroundBlur_2487_44761"/>
</filter>
<linearGradient id="paint0_linear_2487_44761" x1="2.98828" y1="4.78027" x2="2.98828" y2="54.4455" gradientUnits="userSpaceOnUse">
<stop stop-color="#C26316" stop-opacity="0.25"/>
<stop offset="0.9" stop-color="white" stop-opacity="0.25"/>
<stop offset="1" stop-color="white" stop-opacity="0.25"/>
</linearGradient>
</defs>
</svg>
