<svg width="195" height="59" viewBox="0 0 195 59" fill="none" xmlns="http://www.w3.org/2000/svg">
<mask id="mask0_2487_44851" style="mask-type:luminance" maskUnits="userSpaceOnUse" x="0" y="0" width="195" height="59">
<path d="M194.81 0H0V58.5625H194.81V0Z" fill="white"/>
</mask>
<g mask="url(#mask0_2487_44851)">
<g filter="url(#filter0_f_2487_44851)">
<path d="M2.98926 45.0576C8.99761 45.0576 14.1476 31.911 20.156 31.911C26.1643 31.911 31.3144 50.3163 37.3227 50.3163C43.3311 50.3163 48.4811 18.7643 54.4894 18.7643C60.4978 18.7643 65.6478 2.98828 71.6562 2.98828C77.6645 2.98828 82.8146 26.6523 88.8229 26.6523C94.8313 26.6523 99.9813 10.8763 105.99 10.8763C111.998 10.8763 117.148 21.3936 123.156 21.3936C129.165 21.3936 134.315 34.5403 140.323 34.5403C146.331 34.5403 151.481 47.687 157.49 47.687C163.498 47.687 168.648 39.799 174.657 39.799C180.665 39.799 185.815 52.9456 191.823 52.9456C191.823 52.9456 191.823 52.9456 191.823 55.575H2.98926V45.0576Z" fill="url(#paint0_linear_2487_44851)"/>
</g>
</g>
<mask id="mask1_2487_44851" style="mask-type:luminance" maskUnits="userSpaceOnUse" x="0" y="0" width="195" height="59">
<path d="M194.81 0H0V58.5625H194.81V0Z" fill="white"/>
</mask>
<g mask="url(#mask1_2487_44851)">
<path d="M2.98926 45.0576C8.99761 45.0576 14.1476 31.911 20.156 31.911C26.1643 31.911 31.3144 50.3163 37.3227 50.3163C43.3311 50.3163 48.4811 18.7643 54.4894 18.7643C60.4978 18.7643 65.6478 2.98828 71.6562 2.98828C77.6645 2.98828 82.8146 26.6523 88.8229 26.6523C94.8313 26.6523 99.9813 10.8763 105.99 10.8763C111.998 10.8763 117.148 21.3936 123.156 21.3936C129.165 21.3936 134.315 34.5403 140.323 34.5403C146.331 34.5403 151.481 47.687 157.49 47.687C163.498 47.687 168.648 39.799 174.657 39.799C180.665 39.799 185.815 52.9456 191.823 52.9456" stroke="#7168EE" stroke-width="1.19515"/>
</g>
<defs>
<filter id="filter0_f_2487_44851" x="-1.79135" y="-1.79233" width="198.395" height="62.1481" filterUnits="userSpaceOnUse" color-interpolation-filters="sRGB">
<feFlood flood-opacity="0" result="BackgroundImageFix"/>
<feBlend mode="normal" in="SourceGraphic" in2="BackgroundImageFix" result="shape"/>
<feGaussianBlur stdDeviation="2.3903" result="effect1_foregroundBlur_2487_44851"/>
</filter>
<linearGradient id="paint0_linear_2487_44851" x1="2.98926" y1="2.98828" x2="2.98926" y2="55.575" gradientUnits="userSpaceOnUse">
<stop stop-color="#7168EE" stop-opacity="0.25"/>
<stop offset="0.9" stop-color="white" stop-opacity="0.25"/>
<stop offset="1" stop-color="white" stop-opacity="0.25"/>
</linearGradient>
</defs>
</svg>
