<svg width="22" height="16" viewBox="0 0 22 16" fill="none" xmlns="http://www.w3.org/2000/svg">
<path fill-rule="evenodd" clip-rule="evenodd" d="M21.4474 12.2607H6.14813C5.84123 12.2607 5.5957 12.5114 5.5957 12.8132V14.8132C5.5957 15.1201 5.84634 15.3656 6.14813 15.3656H21.4474C21.7543 15.3656 21.9998 15.115 21.9998 14.8132V12.8132C21.9998 12.5063 21.7543 12.2607 21.4474 12.2607Z" fill="#333333"/>
<path fill-rule="evenodd" clip-rule="evenodd" d="M1.90793 11.9082C0.859335 11.9082 0 12.7624 0 13.8161C0 14.8647 0.85422 15.7241 1.90793 15.7241C2.96164 15.7241 3.81586 14.8698 3.81586 13.8161C3.81074 12.7624 2.95652 11.9082 1.90793 11.9082Z" fill="#333333"/>
<path fill-rule="evenodd" clip-rule="evenodd" d="M6.14821 9.41736H18.3784C18.6853 9.41736 18.9308 9.16672 18.9308 8.86493V6.86493C18.9308 6.55802 18.6802 6.3125 18.3784 6.3125H6.14821C5.8413 6.3125 5.59578 6.56314 5.59578 6.86493V8.86493C5.59066 9.16672 5.8413 9.41736 6.14821 9.41736Z" fill="#333333"/>
<path fill-rule="evenodd" clip-rule="evenodd" d="M1.90793 5.9541C0.85422 5.9541 0 6.80832 0 7.86203C0 8.91574 0.85422 9.76996 1.90793 9.76996C2.95652 9.76996 3.81586 8.91574 3.81586 7.86203C3.81074 6.80832 2.95652 5.9541 1.90793 5.9541Z" fill="#333333"/>
<path fill-rule="evenodd" clip-rule="evenodd" d="M6.14821 3.46326H15.3093C15.6162 3.46326 15.8618 3.21262 15.8618 2.91083V0.910828C15.8618 0.603923 15.6111 0.358398 15.3093 0.358398H6.14821C5.8413 0.358398 5.59578 0.609038 5.59578 0.910828V2.91083C5.59066 3.21262 5.8413 3.46326 6.14821 3.46326Z" fill="#333333"/>
<path fill-rule="evenodd" clip-rule="evenodd" d="M1.90793 0C0.859335 0 0 0.85422 0 1.90793C0 2.95652 0.85422 3.81586 1.90793 3.81586C2.96164 3.81586 3.81586 2.96164 3.81586 1.90793C3.81074 0.85422 2.95652 0 1.90793 0Z" fill="#333333"/>
</svg>
