<svg width="22" height="16" viewBox="0 0 22 16" fill="none" xmlns="http://www.w3.org/2000/svg">
<path fill-rule="evenodd" clip-rule="evenodd" d="M21.4454 12.2607H6.14618C5.83927 12.2607 5.59375 12.5114 5.59375 12.8132V14.8132C5.59375 15.1201 5.84439 15.3656 6.14618 15.3656H21.4454C21.7523 15.3656 21.9978 15.115 21.9978 14.8132V12.8132C21.9978 12.5063 21.7523 12.2607 21.4454 12.2607Z" fill="white"/>
<path fill-rule="evenodd" clip-rule="evenodd" d="M1.90793 11.9082C0.859335 11.9082 0 12.7624 0 13.8161C0 14.8647 0.85422 15.7241 1.90793 15.7241C2.96164 15.7241 3.81586 14.8698 3.81586 13.8161C3.81074 12.7624 2.95652 11.9082 1.90793 11.9082Z" fill="white"/>
<path fill-rule="evenodd" clip-rule="evenodd" d="M6.14626 9.41736H18.3764C18.6833 9.41736 18.9289 9.16672 18.9289 8.86493V6.86493C18.9289 6.55802 18.6782 6.3125 18.3764 6.3125H6.14626C5.83935 6.3125 5.59383 6.56314 5.59383 6.86493V8.86493C5.58871 9.16672 5.83935 9.41736 6.14626 9.41736Z" fill="white"/>
<path fill-rule="evenodd" clip-rule="evenodd" d="M1.90793 5.9541C0.85422 5.9541 0 6.80832 0 7.86203C0 8.91574 0.85422 9.76996 1.90793 9.76996C2.95652 9.76996 3.81586 8.91574 3.81586 7.86203C3.81074 6.80832 2.95652 5.9541 1.90793 5.9541Z" fill="white"/>
<path fill-rule="evenodd" clip-rule="evenodd" d="M6.14626 3.46326H15.3074C15.6143 3.46326 15.8598 3.21262 15.8598 2.91083V0.910828C15.8598 0.603923 15.6092 0.358398 15.3074 0.358398H6.14626C5.83935 0.358398 5.59383 0.609038 5.59383 0.910828V2.91083C5.58871 3.21262 5.83935 3.46326 6.14626 3.46326Z" fill="white"/>
<path fill-rule="evenodd" clip-rule="evenodd" d="M1.90793 0C0.859335 0 0 0.85422 0 1.90793C0 2.95652 0.85422 3.81586 1.90793 3.81586C2.96164 3.81586 3.81586 2.96164 3.81586 1.90793C3.81074 0.85422 2.95652 0 1.90793 0Z" fill="white"/>
</svg>
