<svg width="17" height="17" viewBox="0 0 17 17" fill="none" xmlns="http://www.w3.org/2000/svg">
<path d="M9.4734 14.041H6.76671C3.49838 14.041 0.845825 11.3817 0.845825 8.1201C0.845825 4.85854 3.49838 2.19922 6.76671 2.19922H9.4734C12.7417 2.19922 15.3943 4.85854 15.3943 8.1201C15.3943 11.3817 12.7417 14.041 9.4734 14.041ZM6.76671 3.21423C4.06002 3.21423 1.86083 5.41341 1.86083 8.1201C1.86083 10.8268 4.06002 13.026 6.76671 13.026H9.4734C12.1801 13.026 14.3793 10.8268 14.3793 8.1201C14.3793 5.41341 12.1801 3.21423 9.4734 3.21423H6.76671Z" fill="#0077B6"/>
<path d="M6.76675 11.3346C4.99386 11.3346 3.55255 9.89333 3.55255 8.12045C3.55255 6.34756 4.99386 4.90625 6.76675 4.90625C8.53963 4.90625 9.98094 6.34756 9.98094 8.12045C9.98094 9.89333 8.53963 11.3346 6.76675 11.3346ZM6.76675 5.92126C5.5555 5.92126 4.56756 6.9092 4.56756 8.12045C4.56756 9.33169 5.5555 10.3196 6.76675 10.3196C7.97799 10.3196 8.96593 9.33169 8.96593 8.12045C8.96593 6.9092 7.97799 5.92126 6.76675 5.92126Z" fill="#0077B6"/>
</svg>
