<svg width="21" height="21" viewBox="0 0 21 21" fill="none" xmlns="http://www.w3.org/2000/svg">
<path d="M9.7972 15.0691H11.2027V16.4746H9.7972V15.0691ZM15.3987 15.0691H16.8041V16.4746H15.3987V15.0691ZM4.19586 9.79728H5.60138V11.2027H4.19586V9.79728ZM4.19586 15.0691H5.60138V16.4746H4.19586V15.0691ZM18.7372 1.31796H18.2766V3.25119C18.2766 3.59096 18.0011 3.86642 17.6613 3.86642C17.3216 3.86642 17.0461 3.59096 17.0461 3.25119V0.615234C17.0461 0.275461 16.7706 0 16.4309 0C16.0911 0 15.8156 0.275461 15.8156 0.615234V1.31796H14.3227V3.25119C14.3227 3.59096 14.0472 3.86642 13.7074 3.86642C13.3676 3.86642 13.0922 3.59096 13.0922 3.25119V0.615234C13.0922 0.275461 12.8167 0 12.477 0C12.1372 0 11.8617 0.275461 11.8617 0.615234V1.31796H10.3688V3.25119C10.3688 3.59096 10.0933 3.86642 9.75352 3.86642C9.41374 3.86642 9.13828 3.59096 9.13828 3.25119V0.615234C9.13828 0.275461 8.86282 0 8.52305 0C8.18327 0 7.90781 0.275461 7.90781 0.615234V1.31796H6.41484V3.25119C6.41484 3.59096 6.13938 3.86642 5.79961 3.86642C5.45984 3.86642 5.18438 3.59096 5.18438 3.25119V0.615234C5.18438 0.275461 4.90891 0 4.56914 0C4.22937 0 3.95391 0.275461 3.95391 0.615234V1.31796H2.26267C1.01505 1.31796 0 2.33301 0 3.58066V5.27186H21V3.58066C21 2.33301 19.9849 1.31796 18.7372 1.31796Z" fill="white"/>
<path d="M0 18.7369C0 19.9846 1.01505 20.9996 2.26267 20.9996H18.7372C19.9849 20.9996 21 19.9846 21 18.7369V6.50195H0V18.7369ZM12.4332 17.0894C12.4332 17.4292 12.1577 17.7047 11.818 17.7047H9.18196C8.84219 17.7047 8.56673 17.4292 8.56673 17.0894V14.4535C8.56673 14.1138 8.84219 13.8383 9.18196 13.8383H11.818C12.1577 13.8383 12.4332 14.1138 12.4332 14.4535V17.0894ZM14.1682 9.18167C14.1682 8.84189 14.4437 8.56643 14.7834 8.56643H17.4193C17.7591 8.56643 18.0346 8.84189 18.0346 9.18167V11.8176C18.0346 12.1574 17.7591 12.4328 17.4193 12.4328H14.7834C14.4437 12.4328 14.1682 12.1574 14.1682 11.8176V9.18167ZM14.1682 14.4535C14.1682 14.1138 14.4437 13.8383 14.7834 13.8383H17.4193C17.7591 13.8383 18.0346 14.1138 18.0346 14.4535V17.0894C18.0346 17.4292 17.7591 17.7047 17.4193 17.7047H14.7834C14.4437 17.7047 14.1682 17.4292 14.1682 17.0894V14.4535ZM8.66709 10.0646C8.90732 9.82438 9.29689 9.82438 9.53716 10.0646L10.0341 10.5615L11.4629 9.13269C11.7032 8.89247 12.0926 8.89238 12.3329 9.13269C12.5732 9.37292 12.5732 9.76245 12.333 10.0028L10.4692 11.8666C10.3538 11.982 10.1973 12.0468 10.0342 12.0468C9.871 12.0468 9.71452 11.982 9.59913 11.8666L8.66714 10.9346C8.42682 10.6944 8.42682 10.3048 8.66709 10.0646ZM2.96539 9.18167C2.96539 8.84189 3.24085 8.56643 3.58062 8.56643H6.21662C6.55639 8.56643 6.83185 8.84189 6.83185 9.18167V11.8176C6.83185 12.1574 6.55639 12.4328 6.21662 12.4328H3.58062C3.24085 12.4328 2.96539 12.1574 2.96539 11.8176V9.18167ZM2.96539 14.4535C2.96539 14.1138 3.24085 13.8383 3.58062 13.8383H6.21662C6.55639 13.8383 6.83185 14.1138 6.83185 14.4535V17.0894C6.83185 17.4292 6.55639 17.7047 6.21662 17.7047H3.58062C3.24085 17.7047 2.96539 17.4292 2.96539 17.0894V14.4535Z" fill="white"/>
<path d="M15.3984 9.79688H16.8039V11.2023H15.3984V9.79688Z" fill="white"/>
</svg>
