<svg width="14" height="14" viewBox="0 0 14 14" fill="none" xmlns="http://www.w3.org/2000/svg">
<path d="M12.8337 2.33333C12.8337 2.01117 12.5725 1.75 12.2503 1.75H1.75033C1.42816 1.75 1.16699 2.01117 1.16699 2.33333V11.6667C1.16699 11.9888 1.42816 12.25 1.75033 12.25H12.2503C12.5725 12.25 12.8337 11.9888 12.8337 11.6667V2.33333ZM2.33366 8.75H4.32635C4.77643 9.78011 5.80431 10.5 7.00033 10.5C8.19633 10.5 9.22423 9.78011 9.67433 8.75H11.667V11.0833H2.33366V8.75ZM2.33366 2.91667H11.667V7.58333H8.75033C8.75033 8.54986 7.96685 9.33333 7.00033 9.33333C6.0338 9.33333 5.25033 8.54986 5.25033 7.58333H2.33366V2.91667ZM9.33366 6.41667H7.58366V8.16667H6.41699V6.41667H4.66699L7.00033 3.79167L9.33366 6.41667Z" fill="white"/>
</svg>
